<?xml version="1.0" encoding="utf-8"?>
<!-- Generator: Adobe Illustrator 24.3.0, SVG Export Plug-In . SVG Version: 6.00 Build 0)  -->
<svg version="1.1" id="Capa_1" xmlns="http://www.w3.org/2000/svg" xmlns:xlink="http://www.w3.org/1999/xlink" x="0px" y="0px"
	 viewBox="0 0 304 142" style="enable-background:new 0 0 304 142;" xml:space="preserve">
<style type="text/css">
	.st0{fill:#FFFFFF;}
</style>
<g>
	<path class="st0" d="M84.2,74.5c-1.3,0-2.4,0.8-2.9,2c-3.4,8.2-11.6,14-21,14s-17.6-5.8-21-14c-0.5-1.2-1.7-2-2.9-2H19.4
		c-2.1,0-3.7,2-3.1,4.1c8.2,28.5,44,57.5,44,57.5s36-28.5,44-57.5c0.6-2-1-4-3.1-4H84.2z"/>
	<g>
		<circle class="st0" cx="60.3" cy="10.6" r="4.6"/>
		<path class="st0" d="M109.2,60.8H108c-1.5,0-2.8-1-3.1-2.5C100.6,37.6,82.3,22,60.3,22S19.9,37.6,15.6,58.3
			c-0.3,1.5-1.6,2.5-3.1,2.5h-1.1c-1.9,0-3.5,1.4-3.6,3.3c-0.1,1.9,1.5,3.5,3.4,3.5h3.4h91.2h3.4c1.9,0,3.5-1.6,3.4-3.5
			C112.7,62.2,111,60.8,109.2,60.8z M29.4,55.7c-0.2,0.5-0.4,1-0.5,1.5c-0.3,0.9-1.1,1.4-1.9,1.4c-0.2,0-0.4,0-0.6-0.1
			c-1.1-0.4-1.7-1.5-1.3-2.6c0.2-0.6,0.4-1.1,0.6-1.7c0.4-1.1,1.6-1.6,2.7-1.2C29.3,53.5,29.8,54.7,29.4,55.7z M51.3,35.8
			c-7.1,2-13.4,6.4-17.8,12.4c-0.4,0.6-1,0.8-1.7,0.8c-0.4,0-0.8-0.1-1.2-0.4c-0.9-0.7-1.1-2-0.4-2.9c4.9-6.7,12-11.7,20-13.9
			c1.1-0.3,2.2,0.3,2.5,1.4C53,34.3,52.4,35.5,51.3,35.8z"/>
	</g>
	<g>
		<g>
			<path class="st0" d="M126.5,15.3h27.6v7h-20v12.3h18.8v6.7h-18.8v18.9h-7.6V15.3z"/>
			<path class="st0" d="M158.6,44.7c0-2.4,0.4-4.6,1.2-6.5c0.8-2,1.9-3.6,3.4-5c1.4-1.4,3.1-2.5,5-3.2c1.9-0.8,4-1.1,6.2-1.1
				c2.2,0,4.2,0.4,6.2,1.1c1.9,0.8,3.6,1.8,5,3.2c1.4,1.4,2.5,3.1,3.4,5c0.8,2,1.2,4.1,1.2,6.5c0,2.4-0.4,4.6-1.2,6.6
				c-0.8,2-1.9,3.7-3.4,5.1c-1.4,1.4-3.1,2.5-5,3.3c-1.9,0.8-4,1.2-6.2,1.2c-2.2,0-4.2-0.4-6.2-1.2c-1.9-0.8-3.6-1.9-5-3.3
				c-1.4-1.4-2.5-3.1-3.4-5.1C159,49.3,158.6,47.1,158.6,44.7z M166,44.7c0,1.2,0.2,2.4,0.5,3.5c0.3,1.2,0.9,2.2,1.5,3.2
				c0.7,0.9,1.5,1.7,2.6,2.3c1,0.6,2.3,0.9,3.7,0.9c1.4,0,2.7-0.3,3.7-0.9c1-0.6,1.9-1.3,2.6-2.3c0.7-0.9,1.2-2,1.5-3.2
				c0.3-1.2,0.5-2.4,0.5-3.5c0-1.2-0.2-2.4-0.5-3.5c-0.3-1.2-0.9-2.2-1.5-3.1c-0.7-0.9-1.5-1.7-2.6-2.2c-1-0.6-2.3-0.9-3.7-0.9
				c-1.4,0-2.7,0.3-3.7,0.9c-1,0.6-1.9,1.3-2.6,2.2c-0.7,0.9-1.2,2-1.5,3.1C166.2,42.4,166,43.6,166,44.7z"/>
			<path class="st0" d="M195.5,44.7c0-2.4,0.4-4.6,1.2-6.5c0.8-2,1.9-3.6,3.4-5c1.4-1.4,3.1-2.5,5-3.2c1.9-0.8,4-1.1,6.2-1.1
				c2.2,0,4.2,0.4,6.2,1.1c1.9,0.8,3.6,1.8,5,3.2c1.4,1.4,2.5,3.1,3.4,5c0.8,2,1.2,4.1,1.2,6.5c0,2.4-0.4,4.6-1.2,6.6
				c-0.8,2-1.9,3.7-3.4,5.1c-1.4,1.4-3.1,2.5-5,3.3c-1.9,0.8-4,1.2-6.2,1.2c-2.2,0-4.2-0.4-6.2-1.2c-1.9-0.8-3.6-1.9-5-3.3
				c-1.4-1.4-2.5-3.1-3.4-5.1C195.9,49.3,195.5,47.1,195.5,44.7z M202.9,44.7c0,1.2,0.2,2.4,0.5,3.5c0.3,1.2,0.9,2.2,1.5,3.2
				c0.7,0.9,1.5,1.7,2.6,2.3c1,0.6,2.3,0.9,3.7,0.9c1.4,0,2.7-0.3,3.7-0.9c1-0.6,1.9-1.3,2.6-2.3c0.7-0.9,1.2-2,1.5-3.2
				c0.3-1.2,0.5-2.4,0.5-3.5c0-1.2-0.2-2.4-0.5-3.5c-0.3-1.2-0.9-2.2-1.5-3.1c-0.7-0.9-1.5-1.7-2.6-2.2c-1-0.6-2.3-0.9-3.7-0.9
				c-1.4,0-2.7,0.3-3.7,0.9c-1,0.6-1.9,1.3-2.6,2.2c-0.7,0.9-1.2,2-1.5,3.1C203.1,42.4,202.9,43.6,202.9,44.7z"/>
			<path class="st0" d="M263.8,60.1h-6.9v-4.6h-0.1c-1,1.8-2.4,3.1-4.2,4c-1.8,0.9-3.7,1.4-5.8,1.4c-2.2,0-4.2-0.4-5.9-1.3
				s-3.2-2-4.5-3.5c-1.2-1.5-2.2-3.2-2.8-5.1c-0.7-2-1-4.1-1-6.3c0-2.2,0.3-4.3,1-6.3c0.7-1.9,1.7-3.6,2.9-5.1
				c1.2-1.4,2.7-2.6,4.5-3.4c1.7-0.8,3.6-1.2,5.7-1.2c1.3,0,2.5,0.2,3.6,0.5c1,0.3,2,0.7,2.7,1.2c0.8,0.5,1.5,1,2,1.5
				c0.6,0.5,1,1.1,1.4,1.6h0.2V12.2h7.2V60.1z M239.9,44.7c0,1.2,0.2,2.4,0.5,3.5c0.3,1.2,0.9,2.2,1.5,3.2c0.7,0.9,1.5,1.7,2.6,2.3
				c1,0.6,2.3,0.9,3.7,0.9c1.3,0,2.5-0.3,3.6-0.9c1-0.6,1.9-1.3,2.7-2.2c0.7-0.9,1.3-2,1.7-3.1c0.4-1.2,0.6-2.3,0.6-3.5
				c0-1.2-0.2-2.4-0.6-3.5c-0.4-1.2-0.9-2.2-1.7-3.2c-0.7-0.9-1.6-1.7-2.7-2.3c-1-0.6-2.2-0.9-3.6-0.9c-1.4,0-2.6,0.3-3.7,0.9
				c-1,0.6-1.9,1.3-2.6,2.2c-0.7,0.9-1.2,2-1.5,3.1C240.1,42.4,239.9,43.6,239.9,44.7z"/>
			<path class="st0" d="M126.5,67.2h27.6v7h-20v12.3h18.8v6.7h-18.8V112h-7.6V67.2z"/>
			<path class="st0" d="M158.1,71.4c0-1.2,0.4-2.3,1.3-3.2c0.9-0.9,2-1.4,3.3-1.4c1.3,0,2.4,0.4,3.4,1.3c0.9,0.9,1.4,2,1.4,3.3
				c0,1.3-0.5,2.4-1.4,3.3c-0.9,0.9-2,1.3-3.4,1.3c-1.3,0-2.4-0.5-3.3-1.4C158.6,73.6,158.1,72.6,158.1,71.4z M159.2,81.7h7.2V112
				h-7.2V81.7z"/>
			<path class="st0" d="M172.9,81.7h6.9v4.9h0.1c0.6-1.5,1.8-2.9,3.4-4c1.6-1.2,3.5-1.7,5.6-1.7c1.9,0,3.5,0.3,4.9,1
				c1.3,0.7,2.5,1.6,3.3,2.8c0.9,1.1,1.5,2.4,1.9,3.9c0.4,1.5,0.6,3,0.6,4.6v19h-7.2V95.2c0-0.9-0.1-1.8-0.2-2.8
				c-0.1-1-0.4-1.8-0.8-2.6c-0.4-0.8-1-1.4-1.7-1.9c-0.7-0.5-1.6-0.8-2.8-0.8c-1.2,0-2.2,0.2-3,0.7c-0.8,0.5-1.5,1.1-2.1,1.9
				c-0.5,0.8-1,1.6-1.2,2.6c-0.3,1-0.4,2-0.4,3V112h-7.2V81.7z"/>
			<path class="st0" d="M236.8,112h-6.9v-4.6h-0.1c-1,1.8-2.4,3.1-4.2,4c-1.8,0.9-3.7,1.4-5.8,1.4c-2.2,0-4.2-0.4-5.9-1.3
				s-3.2-2-4.5-3.5c-1.2-1.5-2.2-3.2-2.8-5.1c-0.7-2-1-4.1-1-6.3c0-2.2,0.3-4.3,1-6.3c0.7-1.9,1.7-3.6,2.9-5.1
				c1.2-1.4,2.7-2.6,4.5-3.4c1.7-0.8,3.6-1.2,5.7-1.2c1.3,0,2.5,0.2,3.6,0.5c1,0.3,2,0.7,2.7,1.2c0.8,0.5,1.5,1,2,1.5
				c0.6,0.5,1,1.1,1.4,1.6h0.2V64.2h7.2V112z M213,96.7c0,1.2,0.2,2.4,0.5,3.5c0.3,1.2,0.9,2.2,1.5,3.2c0.7,0.9,1.5,1.7,2.6,2.3
				c1,0.6,2.3,0.9,3.7,0.9c1.3,0,2.5-0.3,3.6-0.9c1-0.6,1.9-1.3,2.7-2.2c0.7-0.9,1.3-2,1.7-3.1c0.4-1.2,0.6-2.3,0.6-3.5
				c0-1.2-0.2-2.4-0.6-3.5c-0.4-1.2-0.9-2.2-1.7-3.2c-0.7-0.9-1.6-1.7-2.7-2.3c-1-0.6-2.2-0.9-3.6-0.9c-1.4,0-2.6,0.3-3.7,0.9
				c-1,0.6-1.9,1.3-2.6,2.2c-0.7,0.9-1.2,2-1.5,3.1C213.1,94.4,213,95.5,213,96.7z"/>
			<path class="st0" d="M272.5,97.2c0,0.3,0,0.7,0,1c0,0.3,0,0.7-0.1,1h-22c0.1,1.1,0.4,2.1,0.8,3c0.5,0.9,1.1,1.7,1.8,2.3
				c0.8,0.7,1.6,1.2,2.6,1.5c1,0.4,2,0.6,3,0.6c1.8,0,3.3-0.3,4.6-1c1.2-0.7,2.3-1.7,3.1-2.9l4.8,4c-2.9,4-7,6.1-12.4,6.1
				c-2.3,0-4.3-0.4-6.2-1.1c-1.9-0.7-3.5-1.8-4.9-3.1c-1.4-1.3-2.5-3-3.3-5c-0.8-2-1.2-4.2-1.2-6.7c0-2.4,0.4-4.7,1.2-6.7
				c0.8-2,1.9-3.7,3.2-5.1c1.4-1.4,3-2.5,4.9-3.3c1.9-0.8,3.9-1.2,6.1-1.2c2,0,3.9,0.3,5.6,1c1.7,0.7,3.2,1.7,4.4,3.1
				c1.2,1.4,2.2,3.1,2.9,5.1C272.1,92.1,272.5,94.5,272.5,97.2z M265.2,93.8c0-1-0.1-1.9-0.4-2.8c-0.3-0.9-0.7-1.7-1.2-2.3
				c-0.6-0.7-1.3-1.2-2.1-1.6c-0.9-0.4-1.9-0.6-3-0.6c-2.2,0-4,0.7-5.5,2.1c-1.5,1.4-2.3,3.1-2.5,5.3H265.2z"/>
			<path class="st0" d="M278.3,81.7h6.9v5.1h0.1c0.8-1.8,1.9-3.2,3.4-4.3c1.4-1.1,3.1-1.6,5.1-1.6c0.3,0,0.6,0,0.9,0
				c0.3,0,0.6,0.1,0.8,0.2v7c-0.5-0.1-0.9-0.2-1.2-0.3c-0.3,0-0.7-0.1-1-0.1c-1.7,0-3,0.3-4,0.9c-1,0.6-1.8,1.4-2.4,2.3
				c-0.6,0.9-0.9,1.8-1.1,2.7c-0.2,0.9-0.3,1.7-0.3,2.2V112h-7.2V81.7z"/>
		</g>
	</g>
</g>
</svg>
