<?xml version="1.0" encoding="utf-8"?>
<!-- Generator: Adobe Illustrator 24.3.0, SVG Export Plug-In . SVG Version: 6.00 Build 0)  -->
<svg version="1.1" id="Capa_1" xmlns="http://www.w3.org/2000/svg" xmlns:xlink="http://www.w3.org/1999/xlink" x="0px" y="0px"
	 viewBox="0 0 100 100" style="enable-background:new 0 0 100 100;" xml:space="preserve">
<style type="text/css">
	.st0{fill:#727272;}
	.st1{fill:#FFC933;}
</style>
<g>
	<g>
		<path class="st0" d="M33,82.3H14.2c-0.3,0-0.6-0.1-0.8-0.3c-0.2-0.2-0.3-0.5-0.3-0.8l3.1-36.6c0.4-4.6,4.3-8.1,8.9-8.1
			c4.9,0,8.9,4,8.9,8.9v35.9C34.1,81.9,33.6,82.3,33,82.3z M15.3,80.2H32V45.4c0-3.8-3.1-6.9-6.9-6.9c-3.6,0-6.5,2.7-6.8,6.2
			L15.3,80.2z"/>
	</g>
	<g>
		<path class="st0" d="M50,82.3H33c-0.6,0-1-0.5-1-1V46c0-5.3,4.3-9.5,9.5-9.5S51,40.7,51,46v35.3C51,81.9,50.6,82.3,50,82.3z
			 M34.1,80.2H49V46c0-4.1-3.3-7.4-7.4-7.4c-4.1,0-7.4,3.3-7.4,7.4V80.2z"/>
	</g>
	<g>
		<path class="st0" d="M67,82.3H50c-0.6,0-1-0.5-1-1V46c0-5.3,4.3-9.5,9.5-9.5S68,40.7,68,46v35.3C68,81.9,67.6,82.3,67,82.3z
			 M51,80.2h14.9V46c0-4.1-3.3-7.4-7.4-7.4c-4.1,0-7.4,3.3-7.4,7.4V80.2z"/>
	</g>
	<g>
		<path class="st0" d="M85.8,82.3C85.8,82.3,85.8,82.3,85.8,82.3H67c-0.6,0-1-0.5-1-1V45.4c0-4.9,4-8.9,8.9-8.9
			c4.6,0,8.5,3.5,8.9,8.1l3.1,36.5c0,0.1,0,0.1,0,0.2C86.9,81.9,86.4,82.3,85.8,82.3z M68,80.2h16.7l-3-35.5
			c-0.3-3.5-3.3-6.2-6.8-6.2c-3.8,0-6.9,3.1-6.9,6.9V80.2z"/>
	</g>
	<g>
		<path class="st0" d="M56.3,65.6c-0.6,0-1-0.5-1-1v-8.3c0-0.6,0.5-1,1-1s1,0.5,1,1v8.3C57.3,65.2,56.8,65.6,56.3,65.6z"/>
	</g>
	<g>
		<path class="st0" d="M39.6,59.4c-0.6,0-1-0.5-1-1V45.8c0-0.6,0.5-1,1-1c0.6,0,1,0.5,1,1v12.5C40.6,58.9,40.2,59.4,39.6,59.4z"/>
	</g>
	<g>
		<path class="st0" d="M56.3,74c-0.6,0-1-0.5-1-1v-2.1c0-0.6,0.5-1,1-1s1,0.5,1,1v2.1C57.3,73.5,56.8,74,56.3,74z"/>
	</g>
	<g>
		<path class="st0" d="M84.1,92.7H15.9C10,92.7,5.2,87.9,5.2,82v-0.8c0-0.6,0.5-1,1-1h87.6c0.6,0,1,0.5,1,1V82
			C94.8,87.9,90,92.7,84.1,92.7z M7.3,82.3c0.1,4.6,4,8.3,8.6,8.3h68.3c4.7,0,8.5-3.7,8.6-8.3H7.3z"/>
	</g>
	<g>
		<path class="st0" d="M98,82.3H2c-0.6,0-1-0.5-1-1s0.5-1,1-1H98c0.6,0,1,0.5,1,1S98.5,82.3,98,82.3z"/>
	</g>
	<g>
		<path class="st0" d="M42.7,38.5c-3.4,0-6.3-2.8-6.3-6.3s2.8-6.3,6.3-6.3c3.4,0,6.3,2.8,6.3,6.3S46.2,38.5,42.7,38.5z M42.7,28.1
			c-2.3,0-4.2,1.9-4.2,4.2s1.9,4.2,4.2,4.2c2.3,0,4.2-1.9,4.2-4.2S45,28.1,42.7,28.1z"/>
	</g>
	<g>
		<path class="st0" d="M58.3,38.5c-2.9,0-5.2-2.3-5.2-5.2s2.3-5.2,5.2-5.2c2.9,0,5.2,2.3,5.2,5.2S61.2,38.5,58.3,38.5z M58.3,30.2
			c-1.7,0-3.1,1.4-3.1,3.1s1.4,3.1,3.1,3.1c1.7,0,3.1-1.4,3.1-3.1S60.1,30.2,58.3,30.2z"/>
	</g>
	<g>
		<path class="st0" d="M18.7,23.9c-2.9,0-5.2-2.3-5.2-5.2s2.3-5.2,5.2-5.2s5.2,2.3,5.2,5.2S21.6,23.9,18.7,23.9z M18.7,15.6
			c-1.7,0-3.1,1.4-3.1,3.1s1.4,3.1,3.1,3.1s3.1-1.4,3.1-3.1S20.4,15.6,18.7,15.6z"/>
	</g>
	<g>
		<path class="st0" d="M83.4,21.9c-4,0-7.3-3.3-7.3-7.3s3.3-7.3,7.3-7.3s7.3,3.3,7.3,7.3S87.4,21.9,83.4,21.9z M83.4,9.3
			c-2.9,0-5.2,2.3-5.2,5.2s2.3,5.2,5.2,5.2s5.2-2.3,5.2-5.2S86.2,9.3,83.4,9.3z"/>
	</g>
	<circle class="st1" cx="33.3" cy="16.6" r="2.1"/>
	<circle class="st0" cx="6.2" cy="41.7" r="2.1"/>
	<circle class="st0" cx="62.5" cy="10.4" r="2.1"/>
	<circle class="st1" cx="91.7" cy="33.3" r="2.1"/>
	<circle class="st0" cx="91.7" cy="64.6" r="2.1"/>
	<circle class="st0" cx="39.6" cy="64.6" r="2.1"/>
	<path class="st1" d="M7.3,82.3c0.1,4.6,4,8.3,8.6,8.3h68.3c4.7,0,8.5-3.7,8.6-8.3H7.3z"/>
	<circle class="st1" cx="83.4" cy="14.6" r="5.2"/>
	<circle class="st1" cx="18.7" cy="18.7" r="3.1"/>
</g>
</svg>
