<?xml version="1.0" encoding="utf-8"?>
<!-- Generator: Adobe Illustrator 24.3.0, SVG Export Plug-In . SVG Version: 6.00 Build 0)  -->
<svg version="1.1" id="Capa_1" xmlns="http://www.w3.org/2000/svg" xmlns:xlink="http://www.w3.org/1999/xlink" x="0px" y="0px"
	 viewBox="0 0 100 100" style="enable-background:new 0 0 100 100;" xml:space="preserve">
<style type="text/css">
	.st0{fill:#727272;}
	.st1{fill:#FFC933;}
</style>
<g>
	<path class="st0" d="M48,93.4c-21.9,0-39.7-17.8-39.7-39.7S26.1,13.9,48,13.9c2,0,4,0.1,5.9,0.4c4.5-3.6,10.2-5.6,16-5.6
		c14.1,0,25.6,11.5,25.6,25.6c0,6.9-2.8,13.5-7.7,18.3c0,0.4,0,0.7,0,1C87.8,75.6,70,93.4,48,93.4z M48,16.2
		c-20.7,0-37.5,16.8-37.5,37.5S27.4,91.2,48,91.2s37.5-16.8,37.5-37.5c0-0.4,0-0.9,0-1.4c0-0.3,0.1-0.6,0.4-0.9
		c4.8-4.5,7.4-10.5,7.4-17.1C93.3,21.5,82.8,11,69.9,11c-5.4,0-10.8,1.9-14.9,5.4c-0.2,0.2-0.6,0.3-0.9,0.2
		C52.1,16.3,50.1,16.2,48,16.2z"/>
	<path class="st0" d="M81.9,47.8c-0.3,0-0.6-0.1-0.8-0.4c-0.4-0.4-0.4-1.2,0.1-1.6c3.4-3.2,5.3-7.5,5.3-12.2c0-0.6,0.5-1.1,1.1-1.1
		s1.1,0.5,1.1,1.1c0,5.2-2.2,10.3-6,13.9C82.4,47.7,82.2,47.8,81.9,47.8z"/>
	<path class="st0" d="M46.7,84.9c-16.2,0-29.3-13.1-29.3-29.3c0-0.6,0.5-1.1,1.1-1.1s1.1,0.5,1.1,1.1c0,14.9,12.1,27.1,27.1,27.1
		c0.6,0,1.1,0.5,1.1,1.1S47.3,84.9,46.7,84.9z"/>
	<path class="st0" d="M45.2,72.3c-8,0-14.5-6.5-14.5-14.5s6.5-14.5,14.5-14.5s14.5,6.5,14.5,14.5S53.2,72.3,45.2,72.3z M45.2,45.5
		C38.5,45.5,33,51,33,57.8S38.5,70,45.2,70s12.2-5.5,12.2-12.2S52,45.5,45.2,45.5z"/>
	<path class="st0" d="M9.6,99C6.5,99,4,96.5,4,93.4s2.5-5.6,5.6-5.6s5.6,2.5,5.6,5.6S12.7,99,9.6,99z M9.6,90.1
		c-1.8,0-3.3,1.5-3.3,3.3c0,1.8,1.5,3.3,3.3,3.3s3.3-1.5,3.3-3.3C12.9,91.6,11.4,90.1,9.6,90.1z"/>
	<path class="st0" d="M90.9,87.9c-2.5,0-4.5-2-4.5-4.5c0-2.5,2-4.5,4.5-4.5c2.5,0,4.5,2,4.5,4.5C95.3,85.9,93.3,87.9,90.9,87.9z
		 M90.9,81.2c-1.2,0-2.2,1-2.2,2.2s1,2.2,2.2,2.2c1.2,0,2.2-1,2.2-2.2S92.1,81.2,90.9,81.2z"/>
	<path class="st0" d="M18.5,16.6c-4.3,0-7.8-3.5-7.8-7.8S14.2,1,18.5,1s7.8,3.5,7.8,7.8S22.8,16.6,18.5,16.6z M18.5,3.2
		c-3.1,0-5.6,2.5-5.6,5.6s2.5,5.6,5.6,5.6s5.6-2.5,5.6-5.6S21.6,3.2,18.5,3.2z"/>
	<circle class="st0" cx="74.2" cy="93.4" r="2.2"/>
	<circle class="st0" cx="96.4" cy="6.6" r="2.2"/>
	<circle class="st0" cx="18.5" cy="48.9" r="2.2"/>
	<circle class="st0" cx="38.5" cy="4.3" r="2.2"/>
	<circle class="st0" cx="3.6" cy="28.2" r="2.2"/>
	<circle class="st0" cx="7.4" cy="75.6" r="2.2"/>
	<circle class="st1" cx="45.2" cy="57.8" r="12.2"/>
	<circle class="st1" cx="90.9" cy="83.4" r="2.2"/>
	<circle class="st1" cx="9.6" cy="93.4" r="3.3"/>
	<circle class="st1" cx="18.5" cy="8.8" r="5.6"/>
</g>
</svg>
