<?xml version="1.0" encoding="utf-8"?>
<!-- Generator: Adobe Illustrator 24.3.0, SVG Export Plug-In . SVG Version: 6.00 Build 0)  -->
<svg version="1.1" id="Capa_1" xmlns="http://www.w3.org/2000/svg" xmlns:xlink="http://www.w3.org/1999/xlink" x="0px" y="0px"
	 viewBox="0 0 100 100" style="enable-background:new 0 0 100 100;" xml:space="preserve">
<style type="text/css">
	.st0{fill:#727272;}
	.st1{fill:#FFC933;}
</style>
<g>
	<path class="st0" d="M61,99H35.8c-4,0-7.3-3.3-7.3-7.3v-2.2c0-0.6,0.5-1,1-1h37.7c0.6,0,1,0.5,1,1v2.2C68.3,95.7,65.1,99,61,99z
		 M30.6,90.6v1.1c0,2.9,2.3,5.2,5.2,5.2H61c2.9,0,5.2-2.3,5.2-5.2v-1.1H30.6z"/>
	<path class="st0" d="M54.3,90.6H42.6c-11.2,0-20.3-9.1-20.3-20.3V60.2c0-0.6,0.5-1,1-1c0.6,0,1,0.5,1,1v10.1
		c0,10.1,8.2,18.2,18.2,18.2h11.7c10.1,0,18.2-8.2,18.2-18.2c0-0.6,0.5-1,1-1s1,0.5,1,1C74.6,81.5,65.5,90.6,54.3,90.6z"/>
	<circle class="st0" cx="92.5" cy="89.6" r="2.1"/>
	<circle class="st0" cx="61" cy="68.6" r="2.1"/>
	<circle class="st0" cx="90.4" cy="22.5" r="2.1"/>
	<circle class="st1" cx="71.5" cy="30.9" r="2.1"/>
	<circle class="st0" cx="44.2" cy="30.9" r="2.1"/>
	<circle class="st1" cx="56.8" cy="7.8" r="2.1"/>
	<circle class="st0" cx="35.8" cy="3.6" r="2.1"/>
	<circle class="st0" cx="17" cy="9.9" r="2.1"/>
	<circle class="st1" cx="6.5" cy="35.1" r="2.1"/>
	<circle class="st1" cx="37.9" cy="51.8" r="2.1"/>
	<circle class="st1" cx="82" cy="95.9" r="2.1"/>
	<circle class="st0" cx="8.6" cy="93.8" r="2.1"/>
	<path class="st0" d="M69,90.6H27.9c-11.2,0-20.3-9.1-20.3-20.3V60.2c0-0.6,0.5-1,1-1h79.7c0.6,0,1,0.5,1,1v10.1
		C89.3,81.5,80.2,90.6,69,90.6z M9.6,61.3v9c0,10.1,8.2,18.2,18.2,18.2H69c10.1,0,18.2-8.2,18.2-18.2v-9H9.6z"/>
	<path class="st0" d="M54.7,69.6H8.6c-0.6,0-1-0.5-1-1s0.5-1,1-1h46.1c0.6,0,1,0.5,1,1S55.3,69.6,54.7,69.6z"/>
	<path class="st0" d="M60,51.8H49.7c-2.7,0-4.9-2.2-4.9-4.9c0-0.8,0.2-1.7,0.6-2.4h-3c-2.7,0-4.9-2.2-4.9-4.9c0-0.8,0.2-1.7,0.6-2.4
		h-3c-2.7,0-4.9-2.2-4.9-4.9c0-2.3,1.6-4.3,3.8-4.8L29.5,23c-1.9-1.9-1.9-5,0-6.9c0.9-0.9,2.2-1.4,3.5-1.4c1.3,0,2.5,0.5,3.5,1.4
		l4.6,4.6c0.5-2.2,2.5-3.8,4.8-3.8c2.7,0,4.9,2.2,4.9,4.9v3c0.7-0.4,1.5-0.6,2.4-0.6c2.7,0,4.9,2.2,4.9,4.9v3
		c0.7-0.4,1.5-0.6,2.4-0.6c2.7,0,4.9,2.2,4.9,4.9l0,10.3c0,1.4-0.6,2.7-1.6,3.6C62.7,51.2,61.4,51.8,60,51.8z M35.2,29.6
		c-1.5,0-2.8,1.3-2.8,2.8s1.3,2.8,2.8,2.8h5.5c0.5,0,0.9,0.3,1,0.8c0.1,0.5-0.1,1-0.5,1.2c-0.9,0.5-1.5,1.4-1.5,2.5
		c0,1.5,1.3,2.8,2.8,2.8H48c0.5,0,0.9,0.3,1,0.8s-0.1,1-0.5,1.2c-0.9,0.5-1.5,1.4-1.5,2.5c0,1.5,1.3,2.8,2.8,2.8H60
		c0.8,0,1.6-0.3,2.1-0.9c0,0,0.1-0.1,0.1-0.1c0.6-0.5,0.9-1.3,0.9-2.1l0-10.3c0-1.5-1.3-2.8-2.8-2.8c-1,0-2,0.6-2.5,1.5
		c-0.2,0.4-0.7,0.6-1.2,0.5c-0.5-0.1-0.8-0.5-0.8-1v-5.5c0-1.5-1.3-2.8-2.8-2.8c-1,0-2,0.6-2.5,1.5c-0.2,0.4-0.7,0.6-1.2,0.5
		c-0.5-0.1-0.8-0.5-0.8-1v-5.5c0-1.5-1.3-2.8-2.8-2.8S43,20.3,43,21.9v1.3c0,0.4-0.3,0.8-0.6,1c-0.4,0.2-0.8,0.1-1.1-0.2l-6.3-6.3
		c-0.5-0.5-1.2-0.8-2-0.8c-0.7,0-1.4,0.3-2,0.8c-1.1,1.1-1.1,2.9,0,4l6.3,6.3c0.3,0.3,0.4,0.8,0.2,1.1c-0.2,0.4-0.5,0.6-1,0.6
		L35.2,29.6L35.2,29.6z"/>
	<path class="st0" d="M67.3,55c-0.3,0-0.5-0.1-0.7-0.3L47.7,35.8c-0.4-0.4-0.4-1.1,0-1.5c0.4-0.4,1.1-0.4,1.5,0L68,53.2
		c0.4,0.4,0.4,1.1,0,1.5C67.8,54.9,67.6,55,67.3,55z"/>
	<path class="st0" d="M13.8,55c-3.5,0-6.3-2.8-6.3-6.3c0-3.5,2.8-6.3,6.3-6.3s6.3,2.8,6.3,6.3C20.1,52.1,17.3,55,13.8,55z
		 M13.8,44.5c-2.3,0-4.2,1.9-4.2,4.2c0,2.3,1.9,4.2,4.2,4.2S18,51,18,48.7C18,46.4,16.1,44.5,13.8,44.5z"/>
	<path class="st0" d="M24.3,55c-3.5,0-6.3-2.8-6.3-6.3c0-3.5,2.8-6.3,6.3-6.3s6.3,2.8,6.3,6.3C30.6,52.1,27.8,55,24.3,55z
		 M24.3,44.5c-2.3,0-4.2,1.9-4.2,4.2c0,2.3,1.9,4.2,4.2,4.2s4.2-1.9,4.2-4.2C28.5,46.4,26.6,44.5,24.3,44.5z"/>
	<path class="st0" d="M19.1,39.2c-2.9,0-5.2-2.4-5.2-5.2s2.4-5.2,5.2-5.2s5.2,2.4,5.2,5.2S22,39.2,19.1,39.2z M19.1,30.9
		c-1.7,0-3.1,1.4-3.1,3.1s1.4,3.1,3.1,3.1c1.7,0,3.1-1.4,3.1-3.1S20.8,30.9,19.1,30.9z"/>
	<path class="st0" d="M69.1,25.7c-3.6,0-6.6-3-6.6-6.6s3-6.6,6.6-6.6c3.6,0,6.6,3,6.6,6.6S72.8,25.7,69.1,25.7z M69.1,14.6
		c-2.5,0-4.5,2-4.5,4.5c0,2.5,2,4.5,4.5,4.5c2.5,0,4.5-2,4.5-4.5C73.6,16.6,71.6,14.6,69.1,14.6z"/>
	<path class="st0" d="M77,17.8c-1.8,0-3.4-0.7-4.7-1.9c-2.6-2.6-2.6-6.8,0-9.3c1.2-1.2,2.9-1.9,4.7-1.9c1.8,0,3.4,0.7,4.7,1.9
		c2.6,2.6,2.6,6.8,0,9.3C80.4,17.2,78.7,17.8,77,17.8z M77,6.7c-1.2,0-2.3,0.5-3.2,1.3c-1.8,1.8-1.8,4.6,0,6.4
		c0.9,0.8,2,1.3,3.2,1.3c1.2,0,2.3-0.5,3.2-1.3c1.8-1.8,1.8-4.6,0-6.4C79.3,7.2,78.2,6.7,77,6.7z"/>
	<path class="st0" d="M80.9,8.4c-0.3,0-0.5-0.1-0.7-0.3c-0.4-0.4-0.4-1.1,0-1.5l5.3-5.3c0.4-0.4,1.1-0.4,1.5,0
		c0.4,0.4,0.4,1.1,0,1.5l-5.3,5.3C81.4,8.3,81.2,8.4,80.9,8.4z"/>
	<path class="st0" d="M84.1,48.7c-2.9,0-5.2-2.4-5.2-5.2c0-2.9,2.4-5.2,5.2-5.2c2.9,0,5.2,2.4,5.2,5.2C89.3,46.3,87,48.7,84.1,48.7z
		 M84.1,40.3c-1.7,0-3.1,1.4-3.1,3.1c0,1.7,1.4,3.1,3.1,3.1c1.7,0,3.1-1.4,3.1-3.1C87.2,41.7,85.8,40.3,84.1,40.3z"/>
	<path class="st0" d="M84.1,55c-6.4,0-11.5-5.2-11.5-11.5s5.2-11.5,11.5-11.5s11.5,5.2,11.5,11.5S90.4,55,84.1,55z M84.1,34
		c-5.2,0-9.4,4.2-9.4,9.4s4.2,9.4,9.4,9.4s9.4-4.2,9.4-9.4S89.3,34,84.1,34z"/>
	<path class="st0" d="M19.1,30.9c-0.6,0-1-0.5-1-1v-7.3c0-0.6,0.5-1,1-1c0.6,0,1,0.5,1,1v7.3C20.1,30.4,19.7,30.9,19.1,30.9z"/>
	<path class="st1" d="M30.6,90.6v1.1c0,2.9,2.3,5.2,5.2,5.2H61c2.9,0,5.2-2.3,5.2-5.2v-1.1H30.6z"/>
	<circle class="st1" cx="84.1" cy="43.4" r="3.1"/>
	<circle class="st1" cx="19.1" cy="34" r="3.1"/>
	<path class="st1" d="M77,6.7c-1.2,0-2.3,0.5-3.2,1.3c-1.8,1.8-1.8,4.6,0,6.4c0.9,0.8,2,1.3,3.2,1.3c1.2,0,2.3-0.5,3.2-1.3
		c1.8-1.8,1.8-4.6,0-6.4C79.3,7.2,78.2,6.7,77,6.7z"/>
</g>
</svg>
