<?xml version="1.0" encoding="utf-8"?>
<!-- Generator: Adobe Illustrator 24.3.0, SVG Export Plug-In . SVG Version: 6.00 Build 0)  -->
<svg version="1.1" id="Capa_1" xmlns="http://www.w3.org/2000/svg" xmlns:xlink="http://www.w3.org/1999/xlink" x="0px" y="0px"
	 viewBox="0 0 100 100" style="enable-background:new 0 0 100 100;" xml:space="preserve">
<style type="text/css">
	.st0{fill:#727272;}
	.st1{fill:#FFC933;}
</style>
<g>
	<path class="st0" d="M75.8,88.1h-52c-0.2,0-0.5-0.1-0.7-0.2C13.7,80.7,8.6,69.6,8.6,56.5c0-0.7,0-1.5,0.1-2.2c0-0.6,0.5-1,1.1-1
		h80.6c0.6,0,1.1,0.4,1.1,1c0,0.8,0.1,1.5,0.1,2.2c0,6.3-1.3,12.2-3.9,17.6c-2.6,5.4-6.3,10-11.1,13.7C76.3,88,76,88.1,75.8,88.1z
		 M24.1,85.9h51.3c8.9-7,13.8-17.4,13.8-29.4c0-0.4,0-0.7,0-1.1H10.8c0,0.4,0,0.7,0,1.1C10.7,68.7,15.5,79.2,24.1,85.9z"/>
	<path class="st0" d="M32.6,88.1c-0.2,0-0.5-0.1-0.7-0.2c-3.1-2.3-5.7-5.1-7.8-8.3c-2-2.9-3.6-6.2-4.7-9.7c-0.2-0.6,0.1-1.2,0.7-1.4
		c0.6-0.2,1.2,0.1,1.4,0.7c1.1,3.3,2.5,6.4,4.4,9.1c2,3,4.5,5.6,7.4,7.8c0.5,0.4,0.6,1,0.2,1.5C33.2,88,32.9,88.1,32.6,88.1z"/>
	<path class="st0" d="M71.9,96.8H27.7c-2.8,0-5-2.2-5-5V87c0-0.6,0.5-1.1,1.1-1.1h52c0.6,0,1.1,0.5,1.1,1.1v4.8
		C76.8,94.6,74.6,96.8,71.9,96.8z M24.8,88.1v3.7c0,1.6,1.3,2.8,2.8,2.8h44.2c1.5,0,2.8-1.3,2.8-2.8v-3.7H24.8z"/>
	<circle class="st0" cx="18.4" cy="63.1" r="2.2"/>
	<circle class="st0" cx="96.8" cy="82.7" r="2.2"/>
	<circle class="st1" cx="88.1" cy="91.4" r="2.2"/>
	<circle class="st0" cx="11.9" cy="91.4" r="2.2"/>
	<circle class="st1" cx="3.2" cy="78.3" r="2.2"/>
	<circle class="st1" cx="92.5" cy="32.6" r="2.2"/>
	<circle class="st0" cx="55.4" cy="19.5" r="2.2"/>
	<circle class="st1" cx="38" cy="6.4" r="2.2"/>
	<circle class="st0" cx="7.5" cy="32.6" r="2.2"/>
	<path class="st0" d="M90.3,55.4H9.7c-0.6,0-1.1-0.5-1.1-1.1v-8.7c0-0.6,0.5-1.1,1.1-1.1h80.6c0.6,0,1.1,0.5,1.1,1.1v8.7
		C91.4,55,90.9,55.4,90.3,55.4z M10.8,53.3h78.4v-6.5H10.8V53.3z"/>
	<path class="st0" d="M59.8,64.2H33.7c-0.6,0-1.1-0.5-1.1-1.1s0.5-1.1,1.1-1.1h26.1c0.6,0,1.1,0.5,1.1,1.1S60.4,64.2,59.8,64.2z"/>
	<path class="st0" d="M59.8,46.7c-0.3,0-0.6-0.1-0.8-0.3c-0.4-0.4-0.4-1.1,0.1-1.5l30.5-28.3c0.4-0.4,1.1-0.4,1.5,0.1
		c0.4,0.4,0.4,1.1-0.1,1.5L60.5,46.4C60.3,46.6,60.1,46.7,59.8,46.7z"/>
	<path class="st0" d="M64.5,31.5c-0.3,0-0.6-0.1-0.8-0.3c-0.4-0.4-0.4-1.1,0.1-1.5l25.8-24c0.4-0.4,1.1-0.4,1.5,0.1
		c0.4,0.4,0.4,1.1-0.1,1.5l-25.8,24C65,31.4,64.8,31.5,64.5,31.5z"/>
	<path class="st0" d="M48.9,35.8H19.5c-2.4,0-4.4-2-4.4-4.4s2-4.4,4.4-4.4h17.4c1.2,0,2.2-1,2.2-2.2s-1-2.2-2.2-2.2h-7.8
		c-2.9,0-5.3-2.4-5.3-5.3v-2.3c0-0.6,0.5-1.1,1.1-1.1c0.6,0,1.1,0.5,1.1,1.1v2.3c0,1.7,1.4,3.1,3.1,3.1h7.8c2.4,0,4.4,2,4.4,4.4
		s-2,4.4-4.4,4.4H19.5c-1.2,0-2.2,1-2.2,2.2c0,1.2,1,2.2,2.2,2.2h29.4c0.6,0,1.1,0.5,1.1,1.1C50,35.4,49.5,35.8,48.9,35.8z"/>
	<path class="st0" d="M7.5,20.6c-3,0-5.4-2.4-5.4-5.4s2.4-5.4,5.4-5.4s5.4,2.4,5.4,5.4S10.5,20.6,7.5,20.6z M7.5,11.9
		c-1.8,0-3.3,1.5-3.3,3.3s1.5,3.3,3.3,3.3s3.3-1.5,3.3-3.3S9.3,11.9,7.5,11.9z"/>
	<path class="st0" d="M63.1,16.2c-3.6,0-6.5-2.9-6.5-6.5s2.9-6.5,6.5-6.5s6.5,2.9,6.5,6.5S66.7,16.2,63.1,16.2z M63.1,5.4
		c-2.4,0-4.4,2-4.4,4.4s2,4.4,4.4,4.4s4.4-2,4.4-4.4S65.5,5.4,63.1,5.4z"/>
	<path class="st1" d="M24.8,88.1v3.7c0,1.6,1.3,2.8,2.8,2.8h44.2c1.5,0,2.8-1.3,2.8-2.8v-3.7H24.8z"/>
	<circle class="st1" cx="63.1" cy="9.7" r="4.4"/>
	<circle class="st1" cx="7.5" cy="15.2" r="3.3"/>
</g>
</svg>
