<?xml version="1.0" encoding="utf-8"?>
<!-- Generator: Adobe Illustrator 24.3.0, SVG Export Plug-In . SVG Version: 6.00 Build 0)  -->
<svg version="1.1" id="Capa_1" xmlns="http://www.w3.org/2000/svg" xmlns:xlink="http://www.w3.org/1999/xlink" x="0px" y="0px"
	 viewBox="0 0 100 100" style="enable-background:new 0 0 100 100;" xml:space="preserve">
<style type="text/css">
	.st0{fill:#727272;}
	.st1{fill:#FFC933;}
</style>
<g>
	<path class="st0" d="M94.4,88l-44-86.4c-0.2-0.4-0.6-0.6-1-0.6s-0.8,0.2-1,0.6L4.5,88c-0.3,0.5-0.1,1.2,0.5,1.5
		c0.2,0.1,4.7,2.4,12.4,4.8c7.1,2.2,18.5,4.7,32.1,4.7c0,0,0,0,0,0c15.3,0,30.2-3.2,44.4-9.5c0.3-0.1,0.5-0.4,0.6-0.6
		C94.5,88.6,94.5,88.3,94.4,88z M49.5,4.5l35.9,70.6c-32.1,11.5-60.2,4.3-71.9,0.1L49.5,4.5z M49.5,96.8
		C49.5,96.8,49.5,96.8,49.5,96.8C27.4,96.8,11,89.9,7,88l5.5-10.8c6.5,2.3,16.5,5.2,29,6.1c2.7,0.2,5.4,0.3,8.1,0.3
		c12.6,0,24.9-2.2,36.9-6.5L91.9,88C78.3,93.8,64.1,96.8,49.5,96.8z"/>
	<circle class="st0" cx="73.6" cy="70.2" r="2.2"/>
	<circle class="st0" cx="67" cy="10.9" r="2.2"/>
	<circle class="st0" cx="91.2" cy="37.3" r="2.2"/>
	<circle class="st0" cx="93.4" cy="59.2" r="2.2"/>
	<circle class="st0" cx="16.5" cy="8.7" r="2.2"/>
	<circle class="st0" cx="25.3" cy="26.3" r="2.2"/>
	<circle class="st0" cx="7.7" cy="54.9" r="2.2"/>
	<circle class="st0" cx="42.9" cy="37.3" r="2.2"/>
	<circle class="st0" cx="23.1" cy="70.2" r="2.2"/>
	<path class="st0" d="M34.1,69.1c-3,0-5.5-2.5-5.5-5.5s2.5-5.5,5.5-5.5s5.5,2.5,5.5,5.5S37.1,69.1,34.1,69.1z M34.1,60.3
		c-1.8,0-3.3,1.5-3.3,3.3c0,1.8,1.5,3.3,3.3,3.3s3.3-1.5,3.3-3.3C37.4,61.8,35.9,60.3,34.1,60.3z"/>
	<path class="st0" d="M64.8,66.9c-0.3,0-0.6-0.1-0.8-0.3c-0.4-0.4-0.4-1.1,0-1.6l2.2-2.2c0.4-0.4,1.1-0.4,1.6,0
		c0.4,0.4,0.4,1.1,0,1.6l-2.2,2.2C65.4,66.8,65.1,66.9,64.8,66.9z"/>
	<path class="st0" d="M49.5,31.8c-0.3,0-0.6-0.1-0.8-0.3c-0.4-0.4-0.4-1.1,0-1.6l2.2-2.2c0.4-0.4,1.1-0.4,1.6,0
		c0.4,0.4,0.4,1.1,0,1.6l-2.2,2.2C50,31.7,49.7,31.8,49.5,31.8z"/>
	<path class="st0" d="M49.5,75.7c-0.3,0-0.6-0.1-0.8-0.3l-2.2-2.2c-0.4-0.4-0.4-1.1,0-1.6c0.4-0.4,1.1-0.4,1.6,0l2.2,2.2
		c0.4,0.4,0.4,1.1,0,1.6C50,75.6,49.7,75.7,49.5,75.7z"/>
	<path class="st0" d="M28,53.5c-1.4,0-2.8-0.3-4.1-0.9c-0.5-0.3-0.8-0.9-0.5-1.5c0.3-0.5,0.9-0.8,1.5-0.5c3.5,1.6,7.8,0.3,9.3-2.8
		c1.5-3.3,0.1-7.2-3.2-8.8c-0.5-0.3-0.8-0.9-0.5-1.5c0.3-0.5,0.9-0.8,1.5-0.5c4.4,2.1,6.3,7.3,4.2,11.7C34.6,51.7,31.3,53.5,28,53.5
		z"/>
	<path class="st0" d="M9.9,36.2c-3,0-5.5-2.5-5.5-5.5s2.5-5.5,5.5-5.5s5.5,2.5,5.5,5.5S12.9,36.2,9.9,36.2z M9.9,27.4
		c-1.8,0-3.3,1.5-3.3,3.3S8.1,34,9.9,34s3.3-1.5,3.3-3.3S11.7,27.4,9.9,27.4z"/>
	<path class="st0" d="M86.8,25.2c-4.2,0-7.7-3.5-7.7-7.7s3.5-7.7,7.7-7.7s7.7,3.5,7.7,7.7S91.1,25.2,86.8,25.2z M86.8,12
		c-3,0-5.5,2.5-5.5,5.5s2.5,5.5,5.5,5.5c3,0,5.5-2.5,5.5-5.5S89.8,12,86.8,12z"/>
	<path class="st1" d="M49.5,96.8C49.5,96.8,49.5,96.8,49.5,96.8C27.4,96.8,11,89.9,7,88l5.5-10.8c6.5,2.3,16.5,5.2,29,6.1
		c2.7,0.2,5.4,0.3,8.1,0.3c12.6,0,24.9-2.2,36.9-6.5L91.9,88C78.3,93.8,64.1,96.8,49.5,96.8z"/>
	<circle class="st1" cx="86.8" cy="17.5" r="5.5"/>
	<circle class="st1" cx="9.9" cy="30.7" r="3.3"/>
	<g>
		<path class="st0" d="M57.9,58.4c-0.1,0-0.3,0-0.4-0.1c-1.1-0.3-1.5-1.3-1.9-2.5c-0.2,0.2-0.5,0.4-0.6,0.5
			c-1.5,1.8-3.9,1.3-5.1,0.4c-1.2-0.9-2.5-3.2-1.4-5.2c0.1-0.2,0.3-0.4,0.5-0.6c0.2-0.2,0.6-0.6,0.7-0.8c0,0-0.1-0.1-0.2-0.1
			l-0.2-0.1c-0.7-0.5-1.5-1-1.6-1.9c-0.1-0.9,0.6-1.7,1.2-2.4c3.5-3.4,8.9-3.5,12-0.2c1.5,1.6,2.3,3.7,2.1,6c-0.1,2.2-1.2,4.4-2.8,6
			C59.6,57.8,58.8,58.4,57.9,58.4z M56,53.1c0.1,0,0.2,0,0.2,0c0.5,0.1,0.9,0.4,1,0.9l0.3,0.8c0.1,0.4,0.3,0.9,0.5,1.2
			c0.1-0.1,0.3-0.2,0.5-0.4c1.3-1.2,2-2.8,2.1-4.5c0.1-1.6-0.4-3.1-1.5-4.2c-2.2-2.3-6.1-2.2-8.7,0.3c-0.2,0.2-0.3,0.3-0.4,0.4
			c0.1,0.1,0.3,0.2,0.4,0.3l0.2,0.1c0.9,0.6,1.2,1.3,1.2,1.8c0.1,1.2-0.8,2.1-1.3,2.7c-0.1,0.1-0.2,0.2-0.2,0.2
			c-0.4,0.8,0.4,1.9,0.8,2.2c0,0,1.3,0.8,2-0.1C53.2,54.8,54.8,53.1,56,53.1z"/>
	</g>
</g>
</svg>
