<?xml version="1.0" encoding="utf-8"?>
<!-- Generator: Adobe Illustrator 24.3.0, SVG Export Plug-In . SVG Version: 6.00 Build 0)  -->
<svg version="1.1" id="Layer_1" xmlns="http://www.w3.org/2000/svg" xmlns:xlink="http://www.w3.org/1999/xlink" x="0px" y="0px"
	 viewBox="0 0 1165.4 2268" style="enable-background:new 0 0 1165.4 2268;" xml:space="preserve">
<style type="text/css">
	.st0{fill:#CCCCCC;}
	.st1{opacity:0.5;}
	.st2{opacity:0.3;}
	.st3{fill:#B3B3B3;}
	.st4{fill:#FFC933;}
</style>
<g>
	<path class="st0" d="M633.1,97H517c-7.7,0-14-6.3-14-14s6.3-14,14-14h116c7.7,0,14,6.3,14,14C647.1,90.7,640.8,97,633.1,97z
		 M517,79c-2.2,0-4,1.8-4,4s1.8,4,4,4h116c2.2,0,4-1.8,4-4s-1.8-4-4-4H517z"/>
</g>
<g>
	<path class="st0" d="M699.9,101.6c-10.3,0-18.6-8.4-18.6-18.6s8.4-18.6,18.6-18.6s18.6,8.4,18.6,18.6S710.2,101.6,699.9,101.6z
		 M699.9,74.3c-4.8,0-8.6,3.9-8.6,8.6s3.9,8.6,8.6,8.6s8.6-3.9,8.6-8.6S704.7,74.3,699.9,74.3z"/>
</g>
<g class="st1">
	<path class="st0" d="M7.5,380.8c-4.1,0-7.5-3.4-7.5-7.5v-68c0-4.1,3.4-7.5,7.5-7.5s7.5,3.4,7.5,7.5v68
		C15,377.4,11.6,380.8,7.5,380.8z"/>
</g>
<g class="st1">
	<path class="st0" d="M7.5,625.4c-4.1,0-7.5-3.4-7.5-7.5v-150c0-4.1,3.4-7.5,7.5-7.5s7.5,3.4,7.5,7.5v150
		C15,622,11.6,625.4,7.5,625.4z"/>
</g>
<g class="st1">
	<path class="st0" d="M7.5,829.4c-4.1,0-7.5-3.4-7.5-7.5v-142c0-4.1,3.4-7.5,7.5-7.5s7.5,3.4,7.5,7.5v142
		C15,826,11.6,829.4,7.5,829.4z"/>
</g>
<g class="st1">
	<path class="st0" d="M1157.9,777.4c-4.1,0-7.5-3.4-7.5-7.5v-244c0-4.1,3.4-7.5,7.5-7.5s7.5,3.4,7.5,7.5v244
		C1165.4,774,1162,777.4,1157.9,777.4z"/>
</g>
<g class="st2">
	<path class="st3" d="M971.4,0h-782c-90,0-163,73-163,163v1942c0,90,73,163,163,163h782c90,0,163-73,163-163V163
		C1134.4,73,1061.4,0,971.4,0z"/>
</g>
<g>
	<path class="st4" d="M859.6,75.4L859.6,75.4c0-9.9,8.1-18,18-18H966c67.3,0,121.9,54.6,121.9,121.8v1840.7
		c0,67.3-54.6,121.8-121.9,121.8H194.7c-67.3,0-121.8-54.6-121.8-121.8V179.2c0-67.3,54.6-121.8,121.8-121.8H283c9.9,0,18,8.1,18,18
		l0,0c0,35.9,29.1,65,65,65h428.6C830.5,140.4,859.6,111.2,859.6,75.4z"/>
</g>
<g>
	<path class="st0" d="M838.6,2207.4H322.1c-4.1,0-7.5-3.4-7.5-7.5s3.4-7.5,7.5-7.5h516.5c4.1,0,7.5,3.4,7.5,7.5
		S842.8,2207.4,838.6,2207.4z"/>
</g>
</svg>
